<?xml version="1.0" encoding="utf-8"?>
<!-- Generator: Adobe Illustrator 18.1.1, SVG Export Plug-In . SVG Version: 6.00 Build 0)  -->
<svg version="1.1" id="Слой_1" xmlns="http://www.w3.org/2000/svg" xmlns:xlink="http://www.w3.org/1999/xlink" x="0px" y="0px"
	 viewBox="0 0 283.5 283.5" enable-background="new 0 0 283.5 283.5" xml:space="preserve">
<radialGradient id="SVGID_1_" cx="141.7323" cy="141.7323" r="127.5591" gradientUnits="userSpaceOnUse">
	<stop  offset="0" style="stop-color:#74C163"/>
	<stop  offset="0.3232" style="stop-color:#439E4C"/>
	<stop  offset="0.4887" style="stop-color:#2F9042"/>
	<stop  offset="0.5616" style="stop-color:#29873E"/>
	<stop  offset="0.8435" style="stop-color:#156732"/>
	<stop  offset="1" style="stop-color:#0E5B2D"/>
</radialGradient>
<circle fill="url(#SVGID_1_)" cx="141.7" cy="141.7" r="127.6"/>
<g>
	<path fill="#FFFFFF" d="M106.7,196.7H84.6v-85.8l-23.2,11.8v-22.1l25.8-13.8h19.6V196.7z"/>
	<path fill="#FFFFFF" d="M174.9,198.9c-9.7,0-18.3-2.7-25.6-8.2c-7.1-5.3-12.5-12.3-16.3-20.7c-3.7-8.5-5.6-17.9-5.6-28.3
		c0-10.3,1.8-19.6,5.3-28c3.8-8.8,9.3-15.9,16.7-21.2c7.4-5.3,15.8-8,25.4-8c14.4,0,25.9,5.6,34.4,16.8
		c8.6,11.1,12.9,24.6,12.9,40.4c0,15.8-4.3,29.3-12.9,40.4C200.8,193.3,189.3,198.9,174.9,198.9z M156.8,167.3
		c4.6,6.9,10.6,10.4,18.1,10.4c7.5,0,13.5-3.5,17.9-10.4c4.5-7,6.8-15.6,6.8-25.6c0-10.2-2.3-18.6-6.8-25.4
		c-4.4-7-10.4-10.5-17.9-10.5s-13.6,3.5-18.1,10.5c-4.5,6.8-6.8,15.3-6.8,25.4C150.1,151.8,152.3,160.3,156.8,167.3z"/>
</g>
</svg>
