<?xml version="1.0" encoding="utf-8"?>
<!-- Generator: Adobe Illustrator 18.1.1, SVG Export Plug-In . SVG Version: 6.00 Build 0)  -->
<svg version="1.1" id="Слой_1" xmlns="http://www.w3.org/2000/svg" xmlns:xlink="http://www.w3.org/1999/xlink" x="0px" y="0px"
	 viewBox="0 0 283.5 283.5" enable-background="new 0 0 283.5 283.5" xml:space="preserve">
<radialGradient id="SVGID_1_" cx="141.7323" cy="141.7323" r="127.5591" gradientUnits="userSpaceOnUse">
	<stop  offset="0" style="stop-color:#74C163"/>
	<stop  offset="0.3232" style="stop-color:#439E4C"/>
	<stop  offset="0.4887" style="stop-color:#2F9042"/>
	<stop  offset="0.5616" style="stop-color:#29873E"/>
	<stop  offset="0.8435" style="stop-color:#156732"/>
	<stop  offset="1" style="stop-color:#0E5B2D"/>
</radialGradient>
<circle fill="url(#SVGID_1_)" cx="141.7" cy="141.7" r="127.6"/>
<g>
	<path fill="#FFFFFF" d="M180.8,197.8h-78.2v-16.5l32.4-29.4c7.4-6.8,12.5-12.3,15.2-16.3c2.9-4.2,4.4-8.6,4.4-13.4
		c0-4.7-1.7-8.5-5.2-11.2c-3.5-2.8-8-4.2-13.7-4.2c-10.3,0-20.2,4.2-29.7,12.6V96.2c8.9-7,19.6-10.5,32-10.5
		c10.5,0,19.6,3.1,27.3,9.3c7.7,6.2,11.6,14.3,11.6,24.3c0,7.8-1.7,14.6-5.2,20.6c-3.1,5.7-9.2,12.6-18.1,20.9L135,178h45.9V197.8z"
		/>
</g>
</svg>
