<?xml version="1.0" encoding="utf-8"?>
<!-- Generator: Adobe Illustrator 18.1.1, SVG Export Plug-In . SVG Version: 6.00 Build 0)  -->
<svg version="1.1" id="Слой_1" xmlns="http://www.w3.org/2000/svg" xmlns:xlink="http://www.w3.org/1999/xlink" x="0px" y="0px"
	 viewBox="0 0 283.5 283.5" enable-background="new 0 0 283.5 283.5" xml:space="preserve">
<radialGradient id="SVGID_1_" cx="141.7323" cy="141.7323" r="127.5591" gradientUnits="userSpaceOnUse">
	<stop  offset="0" style="stop-color:#74C163"/>
	<stop  offset="0.3232" style="stop-color:#439E4C"/>
	<stop  offset="0.4887" style="stop-color:#2F9042"/>
	<stop  offset="0.5616" style="stop-color:#29873E"/>
	<stop  offset="0.8435" style="stop-color:#156732"/>
	<stop  offset="1" style="stop-color:#0E5B2D"/>
</radialGradient>
<circle fill="url(#SVGID_1_)" cx="141.7" cy="141.7" r="127.6"/>
<g>
	<path fill="#FFFFFF" d="M136.3,197.8c-13,0-24.1-2.9-33.5-8.8v-21.5c9.6,6.7,20.4,10.1,32.2,10.1c6.7,0,12.2-1.6,16.5-4.9
		c4.3-3.3,6.4-7.8,6.4-13.4c0-5.3-2-9.7-6-13c-4-3.3-9.3-4.9-15.9-4.9c-5.3,0-10.5,1-15.5,3v-14.9l26.2-24.2h-40.5V85.7h69.4v17
		l-24.8,22.8c7.9,1.4,14.8,5,20.7,10.8c6,5.8,9,13.4,9,22.9c0,11.7-4.2,21.1-12.7,28.1C159.5,194.3,149,197.8,136.3,197.8z"/>
</g>
</svg>
