<?xml version="1.0" encoding="utf-8"?>
<!-- Generator: Adobe Illustrator 18.1.1, SVG Export Plug-In . SVG Version: 6.00 Build 0)  -->
<svg version="1.1" id="Слой_1" xmlns="http://www.w3.org/2000/svg" xmlns:xlink="http://www.w3.org/1999/xlink" x="0px" y="0px"
	 viewBox="0 0 283.5 283.5" enable-background="new 0 0 283.5 283.5" xml:space="preserve">
<radialGradient id="SVGID_1_" cx="141.7323" cy="141.7323" r="127.5591" gradientUnits="userSpaceOnUse">
	<stop  offset="0" style="stop-color:#74C163"/>
	<stop  offset="0.3232" style="stop-color:#439E4C"/>
	<stop  offset="0.4887" style="stop-color:#2F9042"/>
	<stop  offset="0.5616" style="stop-color:#29873E"/>
	<stop  offset="0.8435" style="stop-color:#156732"/>
	<stop  offset="1" style="stop-color:#0E5B2D"/>
</radialGradient>
<circle fill="url(#SVGID_1_)" cx="141.7" cy="141.7" r="127.6"/>
<g>
	<path fill="#FFFFFF" d="M134.3,197.8c-11.5,0-21.9-2.6-31.3-7.9v-21.2c9.3,5.9,19.4,8.8,30.3,8.8c7.1,0,13-1.6,17.5-4.9
		c4.6-3.2,6.8-7.7,6.8-13.5c0-5.4-2.2-9.8-6.7-13.2c-4.5-3.4-10.4-5-17.8-5c-8.7,0-17.5,1.6-26.4,4.7l7.2-60h58.7v19.5h-42.1
		l-2.4,18.7c3.2-0.7,6.8-1.1,10.5-1.1c12.1,0,22,3.4,29.7,10.1c7.9,6.7,11.8,15.5,11.8,26.4c0,12-4.5,21.5-13.4,28.4
		C158.1,194.4,147.2,197.8,134.3,197.8z"/>
</g>
</svg>
