<?xml version="1.0" encoding="utf-8"?>
<!-- Generator: Adobe Illustrator 18.1.1, SVG Export Plug-In . SVG Version: 6.00 Build 0)  -->
<svg version="1.1" id="Слой_1" xmlns="http://www.w3.org/2000/svg" xmlns:xlink="http://www.w3.org/1999/xlink" x="0px" y="0px"
	 viewBox="0 0 283.5 283.5" enable-background="new 0 0 283.5 283.5" xml:space="preserve">
<radialGradient id="SVGID_1_" cx="141.7323" cy="141.7323" r="127.5591" gradientUnits="userSpaceOnUse">
	<stop  offset="0" style="stop-color:#74C163"/>
	<stop  offset="0.3232" style="stop-color:#439E4C"/>
	<stop  offset="0.4887" style="stop-color:#2F9042"/>
	<stop  offset="0.5616" style="stop-color:#29873E"/>
	<stop  offset="0.8435" style="stop-color:#156732"/>
	<stop  offset="1" style="stop-color:#0E5B2D"/>
</radialGradient>
<circle fill="url(#SVGID_1_)" cx="141.7" cy="141.7" r="127.6"/>
<g>
	<path fill="#FFFFFF" d="M143.7,198.9c-13.8,0-24.6-4.6-32.3-13.7c-7.7-9.1-11.5-21.7-11.5-37.9c0-8.3,1-16.1,3.1-23.6
		c2.1-7.4,5.2-14.1,9.2-20c4-5.9,9.3-10.6,15.9-14.1c6.5-3.5,14-5.2,22.2-5.2c9.4,0,17.7,2.4,24.8,7.1V112
		c-6.9-4.7-14.3-7.1-22.3-7.1c-9,0-16.1,2.8-21.4,8.5c-5.1,5.6-8,12.7-8.6,21.4c5.9-6.8,14.4-10.2,25.6-10.2
		c9.9,0,18.3,3.2,25.1,9.7c6.7,6.4,10.1,15,10.1,25.8c0,11.4-3.8,20.7-11.5,28C164.6,195.3,155.1,198.9,143.7,198.9z M142.3,179.4
		c5.5,0,10.1-1.8,13.6-5.3c3.5-3.5,5.3-8,5.3-13.6c0-5.3-1.8-9.7-5.3-13.2c-3.6-3.5-8.1-5.2-13.5-5.2c-4.3,0-8.3,1.3-12.1,3.9
		c-3.8,2.6-6.4,5.9-8,9.9c0.3,7.4,2.3,13.2,5.8,17.3C131.5,177.4,136.3,179.4,142.3,179.4z"/>
</g>
</svg>
