<?xml version="1.0" encoding="utf-8"?>
<!-- Generator: Adobe Illustrator 18.1.1, SVG Export Plug-In . SVG Version: 6.00 Build 0)  -->
<svg version="1.1" id="Слой_1" xmlns="http://www.w3.org/2000/svg" xmlns:xlink="http://www.w3.org/1999/xlink" x="0px" y="0px"
	 viewBox="0 0 283.5 283.5" enable-background="new 0 0 283.5 283.5" xml:space="preserve">
<radialGradient id="SVGID_1_" cx="141.7323" cy="141.7323" r="127.5591" gradientUnits="userSpaceOnUse">
	<stop  offset="0" style="stop-color:#74C163"/>
	<stop  offset="0.3232" style="stop-color:#439E4C"/>
	<stop  offset="0.4887" style="stop-color:#2F9042"/>
	<stop  offset="0.5616" style="stop-color:#29873E"/>
	<stop  offset="0.8435" style="stop-color:#156732"/>
	<stop  offset="1" style="stop-color:#0E5B2D"/>
</radialGradient>
<circle fill="url(#SVGID_1_)" cx="141.7" cy="141.7" r="127.6"/>
<g>
	<path fill="#FFFFFF" d="M165.2,138.1c6.2,2.2,11.1,5.8,14.8,10.7c3.7,4.9,5.6,10.5,5.6,16.7c0,10.4-4.2,18.5-12.7,24.5
		c-8.3,6-18.6,9-31.1,9c-12.4,0-22.8-3-31.3-9s-12.7-14.1-12.7-24.5c0-6.2,1.9-11.7,5.6-16.7c3.7-4.9,8.7-8.5,14.8-10.7
		c-4.8-2.2-8.6-5.3-11.3-9.4c-2.7-4.1-4.1-8.6-4.1-13.7c0-9,3.7-16.3,11-22c7.4-5.7,16.8-8.5,28-8.5c11,0,20.2,2.8,27.6,8.5
		c7.4,5.7,11.2,13,11.2,22c0,5-1.4,9.6-4.1,13.7C173.8,132.8,170,135.9,165.2,138.1z M162.2,164c0-4.6-1.9-8.4-5.8-11.5
		c-3.9-3-8.7-4.6-14.6-4.6c-5.9,0-10.8,1.5-14.7,4.6c-3.9,3-5.9,6.9-5.9,11.5c0,4.5,2,8.3,5.9,11.3c3.9,3,8.8,4.6,14.7,4.6
		c5.9,0,10.7-1.5,14.6-4.6C160.3,172.3,162.2,168.5,162.2,164z M124.7,117.2c0,4,1.6,7.3,4.9,9.8c3.3,2.6,7.4,3.8,12.2,3.8
		c4.8,0,8.8-1.3,12.1-3.8c3.2-2.6,4.9-5.8,4.9-9.8c0-4.1-1.6-7.4-4.9-10c-3.2-2.6-7.3-3.8-12.1-3.8c-4.8,0-8.9,1.3-12.2,3.8
		C126.3,109.8,124.7,113.1,124.7,117.2z"/>
</g>
</svg>
