<?xml version="1.0" encoding="utf-8"?>
<!-- Generator: Adobe Illustrator 18.1.1, SVG Export Plug-In . SVG Version: 6.00 Build 0)  -->
<svg version="1.1" id="Слой_1" xmlns="http://www.w3.org/2000/svg" xmlns:xlink="http://www.w3.org/1999/xlink" x="0px" y="0px"
	 viewBox="0 0 283.5 283.5" enable-background="new 0 0 283.5 283.5" xml:space="preserve">
<g>
	<g>
		<path fill="#2F9042" d="M54.8,262.5c-3.3,0-6-1-8.2-3c-2.2-2-3.2-4.5-3.2-7.7c0-3.1,1.1-5.7,3.2-7.7c2.2-2,4.9-3,8.2-3
			c1.9,0,3.7,0.4,5.3,1.2v5.2c-1.6-1-3.3-1.5-5.2-1.5c-1.7,0-3.1,0.5-4.3,1.6c-1.1,1.1-1.7,2.5-1.7,4.1c0,1.7,0.6,3.1,1.8,4.2
			c1.2,1.1,2.7,1.6,4.5,1.6c2.1,0,3.9-0.5,5.4-1.6v5.2C58.8,262.1,56.9,262.5,54.8,262.5z"/>
		<path fill="#2F9042" d="M66.8,266h-4.9v-8.6h2c1.6-2.5,2.3-6.6,2.3-12.2v-3.7h15.3v15.8h2.7v8.6h-5v-4H66.8V266z M69.6,257.5h6.6
			v-11.2h-4.8C71.4,250.5,70.8,254.3,69.6,257.5z"/>
		<path fill="#2F9042" d="M102.6,262.1H86.9v-20.5h15.5v4.6H92.1v2.8h8.2v4.4h-8.2v4h10.5V262.1z"/>
		<path fill="#2F9042" d="M106,262.2c-1,0-1.7-0.1-2.2-0.4V257c0.5,0.3,1,0.4,1.5,0.4c1,0,1.7-0.6,2-1.9c0.3-1.3,0.5-3.8,0.5-7.7
			l0.1-6.2h15.3v20.5h-5.3v-15.8H113l-0.1,2.2c-0.2,5.5-0.7,9-1.6,10.7C110.3,261.2,108.5,262.2,106,262.2z"/>
		<path fill="#2F9042" d="M132.3,262.1h-5.3v-20.5h5.3v7.8l6.6-7.8h6.3l-7.9,9.4l9.4,11h-6.4l-8-9.1V262.1z"/>
		<path fill="#2F9042" d="M153,262.1h-4.4v-20.5h5.3v11.5l8.4-11.5h4.6v20.5h-5.3v-11.7L153,262.1z"/>
		<path fill="#A6A8AB" d="M184.2,262.1h-5.3v-20.5h9.1c2.3,0,4.1,0.6,5.4,1.8c1.3,1.2,2,2.7,2,4.6c0,1.9-0.7,3.4-2,4.6
			c-1.3,1.2-3.1,1.8-5.4,1.8h-3.9V262.1z M184.2,246.1v4.1h3.5c0.8,0,1.4-0.2,1.8-0.5c0.5-0.4,0.7-0.9,0.7-1.5
			c0-0.6-0.2-1.1-0.7-1.5c-0.4-0.4-1.1-0.5-1.8-0.5H184.2z"/>
		<path fill="#A6A8AB" d="M203.4,262.1h-5.3v-20.5h9.6c2.3,0,4,0.6,5.3,1.8c1.3,1.2,2,2.7,2,4.5c0,1.3-0.4,2.5-1.1,3.5
			c-0.7,1-1.7,1.8-2.9,2.2l6.2,8.4h-6l-5.8-7.8h-2.1V262.1z M203.4,246.1v3.9h4.1c0.7,0,1.3-0.2,1.7-0.5c0.4-0.3,0.6-0.8,0.6-1.4
			c0-0.6-0.2-1.1-0.6-1.4c-0.4-0.4-1-0.5-1.7-0.5H203.4z"/>
		<path fill="#A6A8AB" d="M236.7,259.4c-2,2.1-4.6,3.1-7.7,3.1c-3.1,0-5.7-1-7.7-3.1c-2-2.1-3.1-4.6-3.1-7.5c0-3,1-5.5,3.1-7.5
			c2-2.1,4.6-3.1,7.7-3.1c3.1,0,5.7,1,7.7,3.1c2,2.1,3.1,4.6,3.1,7.5C239.7,254.8,238.7,257.3,236.7,259.4z M225.1,256
			c1,1.1,2.3,1.6,3.9,1.6c1.5,0,2.8-0.5,3.8-1.6c1-1.1,1.5-2.5,1.5-4.1c0-1.7-0.5-3.1-1.5-4.1c-1-1.1-2.3-1.6-3.8-1.6
			c-1.5,0-2.8,0.5-3.9,1.6c-1,1.1-1.5,2.5-1.5,4.1C223.6,253.5,224.1,254.9,225.1,256z"/>
	</g>
	<rect x="169.8" y="256" fill="#2F9042" width="6.1" height="6.1"/>
</g>
<g>
	<g>
		<path fill="#2F9042" d="M104.2,222.2h-8v-31.1h13.9c3.5,0,6.2,0.9,8.3,2.7c2,1.8,3.1,4.1,3.1,7c0,2.9-1,5.2-3.1,7.1
			c-2,1.8-4.8,2.7-8.3,2.7h-5.9V222.2z M104.2,197.9v6.2h5.3c1.2,0,2.1-0.3,2.8-0.8c0.7-0.5,1-1.3,1-2.3c0-1-0.3-1.7-1-2.3
			c-0.7-0.5-1.6-0.8-2.8-0.8H104.2z"/>
		<path fill="#2F9042" d="M133.4,222.2h-8v-31.1H140c3.4,0,6.1,0.9,8.1,2.7c2,1.8,3.1,4.1,3.1,6.9c0,2-0.5,3.8-1.6,5.3
			c-1.1,1.5-2.5,2.7-4.4,3.4l9.4,12.7h-9.2l-8.8-11.9h-3.2V222.2z M133.4,197.9v6h6.2c1.1,0,2-0.3,2.6-0.8c0.6-0.5,1-1.2,1-2.2
			s-0.3-1.6-1-2.2c-0.6-0.5-1.5-0.8-2.6-0.8H133.4z"/>
		<path fill="#2F9042" d="M184,218.1c-3.1,3.1-7,4.7-11.7,4.7c-4.7,0-8.6-1.6-11.7-4.7c-3.1-3.1-4.7-7-4.7-11.5
			c0-4.5,1.6-8.3,4.7-11.5c3.1-3.1,7-4.7,11.7-4.7c4.7,0,8.6,1.6,11.7,4.7c3.1,3.1,4.7,7,4.7,11.5C188.7,211.2,187.1,215,184,218.1z
			 M166.4,213c1.6,1.7,3.5,2.5,5.9,2.5c2.3,0,4.2-0.8,5.8-2.5c1.6-1.7,2.4-3.8,2.4-6.3c0-2.5-0.8-4.6-2.4-6.3
			c-1.6-1.7-3.5-2.5-5.8-2.5c-2.3,0-4.3,0.8-5.9,2.5c-1.5,1.6-2.3,3.7-2.3,6.3S164.9,211.3,166.4,213z"/>
	</g>
	<polygon fill="#A6A8AB" points="142.5,54.1 142.5,146.5 69.2,192.5 69.2,100.1 	"/>
	<polygon fill="#2F9042" points="215.7,100.1 142.5,54.1 142.5,146.5 215.7,192.5 	"/>
	<polygon fill="#2F9042" points="142.5,25.4 44.9,86.6 44.9,216.8 88.7,216.8 88.7,198.2 63.5,198.2 63.5,96.9 142.5,47.3 
		221.4,96.9 221.4,198.2 196.2,198.2 196.2,216.8 240,216.8 240,86.6 	"/>
</g>
</svg>
